<?xml version="1.0" standalone="no"?><!DOCTYPE svg PUBLIC "-//W3C//DTD SVG 1.1//EN" "http://www.w3.org/Graphics/SVG/1.1/DTD/svg11.dtd"><svg t="1539757998340" class="icon" style="" viewBox="0 0 1024 1024" version="1.1" xmlns="http://www.w3.org/2000/svg" p-id="4056" xmlns:xlink="http://www.w3.org/1999/xlink" width="200" height="200"><defs><style type="text/css"></style></defs><path d="M857.2 167.6c22.4 0 41.2 3.6 55.6 11.2 14.8 7.6 26.4 16.8 34.8 28 8.8 11.2 14.8 23.2 18 36.4 3.2 13.2 5.2 25.2 5.2 36.4 0 5.2 0 9.2-0.4 12.4-0.4 2.8-0.4 5.6-0.4 8l0 6.8-74.4 0 0 587.2c0 14.8-2.8 29.2-9.2 43.2-6 13.6-14.8 26-26 36.4-11.2 10.4-24.8 18.8-41.2 25.2-16 6.4-34.8 9.6-55.6 9.6L262.4 1008.4c-19.6 0-38-2.8-55.2-8.8-17.2-6-32-14.4-44.4-25.2-12.4-10.8-22-24-29.2-39.2-7.2-15.2-10.8-32.8-10.8-52l0-576L52.8 307.2c-0.8-0.8-1.2-2.8-1.2-5.6-0.8-3.6-1.2-15.2-1.2-34.8 0-9.6 2.4-20.4 6.8-32.4 4.4-12 11.2-22.8 20.4-32.8 9.2-10 20.8-18.4 34.8-25.2 14.4-6.8 31.2-10 50.8-10l100 0L263.2 97.2c0-19.2 6.8-36 20.4-49.6 13.6-13.6 30-20.8 49.6-20.8l352 0c26.4 0 44.4 6.8 54.4 20.8 10 13.6 15.2 30.4 15.2 49.6l0 69.2c15.6 0.8 32.8 1.2 50.8 1.2L857.2 167.6 857.2 167.6 857.2 167.6zM333.2 167.6l352 0L685.2 97.2l-352 0L333.2 167.6 333.2 167.6zM298.4 875.6c24 0 36-15.2 36-46L334.4 310.8 264.4 310.8l0 518.8c0 15.6 2.4 27.2 7.2 34.8C276.8 871.6 285.6 875.6 298.4 875.6L298.4 875.6 298.4 875.6zM510.8 874.4c12.8 0 21.2-3.6 26-10.8 4.4-7.2 6.8-18.4 6.8-34L543.6 310.8l-69.6 0 0 518.8C473.6 859.6 486 874.4 510.8 874.4L510.8 874.4 510.8 874.4zM722.4 872c13.6 0 22.4-3.6 26.8-10.8 4.4-7.2 6.8-18.4 6.8-34L756 310.8l-70.8 0 0 516.4C685.2 857.2 697.6 872 722.4 872L722.4 872 722.4 872z" p-id="4057"></path></svg>