<?xml version="1.0" standalone="no"?><!DOCTYPE svg PUBLIC "-//W3C//DTD SVG 1.1//EN" "http://www.w3.org/Graphics/SVG/1.1/DTD/svg11.dtd"><svg t="1539940738978" class="icon" style="" viewBox="0 0 1024 1024" version="1.1" xmlns="http://www.w3.org/2000/svg" p-id="3768" xmlns:xlink="http://www.w3.org/1999/xlink" width="200" height="200"><defs><style type="text/css"></style></defs><path d="M512 0C229.248 0 0 229.248 0 512s229.248 512 512 512 512-229.248 512-512S794.752 0 512 0zM896 512c0 82.816-26.624 159.36-71.36 222.144L289.856 199.36C352.64 154.624 429.184 128 512 128 723.712 128 896 300.288 896 512zM128 512c0-82.816 26.624-159.36 71.36-222.144l534.784 534.784C671.36 869.376 594.816 896 512 896 300.288 896 128 723.712 128 512z" p-id="3769"></path></svg>