<?xml version="1.0" standalone="no"?><!DOCTYPE svg PUBLIC "-//W3C//DTD SVG 1.1//EN" "http://www.w3.org/Graphics/SVG/1.1/DTD/svg11.dtd"><svg t="1539940691208" class="icon" style="" viewBox="0 0 1024 1024" version="1.1" xmlns="http://www.w3.org/2000/svg" p-id="3110" xmlns:xlink="http://www.w3.org/1999/xlink" width="200" height="200"><defs><style type="text/css"></style></defs><path d="M839.50592 322.47808c31.36 56.448 50.176 119.168 50.176 188.17536 0 206.96064-169.344 376.30976-376.29952 376.30976-206.976 0-376.32-169.344-376.32-376.30976 0-69.00736 18.816-131.72736 50.176-188.17536H49.2544c-25.088 56.448-37.632 119.168-37.632 188.17536 0 275.95776 225.792 501.74976 501.76 501.74976 275.94752 0 501.73952-225.792 501.73952-501.74976 0-69.00736-12.544-131.72736-37.632-188.17536h-137.984z" p-id="3111"></path><path d="M513.3824 573.35808c-37.632 0-62.72-25.088-62.72-62.70976V71.59808c0-31.36 25.088-62.72 62.72-62.72 31.33952 0 62.69952 25.088 62.69952 62.72v439.05536c0 37.61664-25.09312 62.70464-62.69952 62.70464z" p-id="3112"></path></svg>