<?xml version="1.0" standalone="no"?><!DOCTYPE svg PUBLIC "-//W3C//DTD SVG 1.1//EN" "http://www.w3.org/Graphics/SVG/1.1/DTD/svg11.dtd"><svg t="1564125028677" class="icon" viewBox="0 0 1024 1024" version="1.1" xmlns="http://www.w3.org/2000/svg" p-id="1440" xmlns:xlink="http://www.w3.org/1999/xlink" width="128" height="128"><defs><style type="text/css"></style></defs><path d="M512 85.333333a67.413333 67.413333 0 0 1 67.413333 67.413334A67.413333 67.413333 0 0 1 512 220.16a67.413333 67.413333 0 0 1-67.413333-67.413333A67.413333 67.413333 0 0 1 512 85.333333M332.373333 130.133333c37.12 0 67.413333 30.293333 67.413334 67.413334 0 37.12-30.293333 67.413333-67.413334 67.413333a67.413333 67.413333 0 0 1-67.413333-67.413333 67.413333 67.413333 0 0 1 67.413333-67.413334m359.253334 0c37.12 0 67.413333 30.293333 67.413333 67.413334 0 37.12-30.293333 67.413333-67.413333 67.413333a67.413333 67.413333 0 0 1-67.413334-67.413333 67.413333 67.413333 0 0 1 67.413334-67.413334m-188.16 337.066667c-89.6-90.026667-67.413333-134.826667-67.413334-134.826667h157.44c0 67.413333-90.026667 134.826667-90.026666 134.826667m90.026666 448.853333s0-89.6-179.626666-269.226666c-179.2-179.626667-202.24-224.853333-224.853334-359.253334 0 0 17.066667-22.613333 39.68 0 22.186667 22.186667 72.96 39.253333 117.76 39.253334 0 0 44.8 140.373333 168.533334 229.973333 0 0 162.56-168.106667 162.56-235.52 0 0 50.773333 11.093333 111.786666-33.706667 0 0 42.666667-22.613333 45.653334 0 5.546667 44.8-39.68 201.813333-224.853334 359.253334 0 0 118.186667 134.826667 106.666667 269.226666h-123.306667m-202.24-224.426666l95.573334 106.666666C442.026667 843.093333 436.053333 938.666667 436.053333 938.666667H301.653333c22.186667-179.626667 89.6-247.04 89.6-247.04z" fill="" p-id="1441"></path></svg>