<?xml version="1.0" standalone="no"?><!DOCTYPE svg PUBLIC "-//W3C//DTD SVG 1.1//EN" "http://www.w3.org/Graphics/SVG/1.1/DTD/svg11.dtd"><svg t="1558513313535" class="icon" style="" viewBox="0 0 1181 1024" version="1.1" xmlns="http://www.w3.org/2000/svg" p-id="8495" xmlns:xlink="http://www.w3.org/1999/xlink" width="147.625" height="128"><defs><style type="text/css"></style></defs><path d="M1041.329231 0H80.029538C35.918769 0 0 35.84 0 80.029538v640.787693a80.108308 80.108308 0 0 0 80.029538 80.029538H480.492308v120.280616H280.418462a40.014769 40.014769 0 0 0-40.172308 40.014769v40.014769h640.787692v-40.014769a40.014769 40.014769 0 0 0-40.014769-40.014769H640.787692v-120.123077h400.384a80.108308 80.108308 0 0 0 80.108308-80.029539V80.029538A80.108308 80.108308 0 0 0 1041.329231 0zM520.664615 720.738462a40.014769 40.014769 0 1 1 80.029539-3.072 40.014769 40.014769 0 0 1-80.029539 3.150769zM80.029538 80.108308h961.142154v560.758154H80.029538V80.029538z" p-id="8496"></path></svg>