<?xml version="1.0" standalone="no"?><!DOCTYPE svg PUBLIC "-//W3C//DTD SVG 1.1//EN" "http://www.w3.org/Graphics/SVG/1.1/DTD/svg11.dtd"><svg t="1552460416268" class="icon" style="" viewBox="0 0 1024 1024" version="1.1" xmlns="http://www.w3.org/2000/svg" p-id="2571" xmlns:xlink="http://www.w3.org/1999/xlink" width="128" height="128"><defs><style type="text/css"></style></defs><path d="M902.12 898.17c-63.28-57.26-137.27-97.59-215.32-122.11 120.82-62.88 203.46-189.01 203.46-334.63 0-208.36-168.91-377.26-377.26-377.26s-377.26 168.9-377.26 377.26c0 144.08 80.82 269.2 199.55 332.75-78.18 24.14-151.23 64.76-212.12 122.92-14.32 13.69-14.72 36.27-0.89 50.44 13.83 14.18 36.7 14.59 51 0.88 181.74-173.57 486.85-172.51 680.15 2.39 6.93 6.26 15.64 9.35 24.35 9.35 9.77 0 19.49-3.9 26.6-11.6 13.45-14.52 12.44-37.1-2.26-50.39zM206.47 441.43c0-169.02 137.51-306.53 306.53-306.53s306.53 137.51 306.53 306.53S682.02 747.95 513 747.95s-306.53-137.5-306.53-306.52z" p-id="2572"></path><path d="M678.05 441.43c0-91.16-73.9-165.05-165.05-165.05s-165.05 73.9-165.05 165.05S421.84 606.48 513 606.48s165.05-73.9 165.05-165.05z m-259.37 0c0-52.01 42.31-94.32 94.32-94.32s94.32 42.31 94.32 94.32-42.31 94.32-94.32 94.32-94.32-42.32-94.32-94.32z" p-id="2573"></path></svg>