<?xml version="1.0" standalone="no"?><!DOCTYPE svg PUBLIC "-//W3C//DTD SVG 1.1//EN" "http://www.w3.org/Graphics/SVG/1.1/DTD/svg11.dtd"><svg t="1568970149214" class="icon" viewBox="0 0 1024 1024" version="1.1" xmlns="http://www.w3.org/2000/svg" p-id="937" xmlns:xlink="http://www.w3.org/1999/xlink" width="200" height="200"><defs><style type="text/css"></style></defs><path d="M853.01928471 489.89019498c-0.08804788-46.03926657-29.11450432-86.1304086-70.91768876-99.42564091-16.23994528-5.18504278-33.08644274-5.95790767-50.01120499-5.18504276-7.51342045 0.34240848-11.74950257 0.69460006-10.87880673-10.71249404 2.07401707-27.90139995 2.41642559-56.14520842 1.20332127-84.22270417-3.97193842-92.43072472-68.58931105-170.35311276-159.64061874-194.10647851-86.38476917-22.54026139-178.90354177 15.37903252-228.57233828 91.82417254-39.73895045 60.98784272-34.46585978 128.09990574-31.27656931 197.20772108-11.66145469 0-22.19785292-0.25436058-32.65598637 0-55.02993505 1.46746494-98.90713663 45.002258-99.17128031 99.94414519-0.51850428 115.3231777-0.60655217 230.63657229 0 345.95974997 0.34240848 56.06694362 43.96524943 101.93989747 99.68978459 102.27252289 161.70485273 1.03700857 323.50753646 0.94896067 485.21238923 0 53.81683072-0.34240848 96.75485474-45.69685807 97.0092153-99.68000151 0.44023946-114.60901141 0.35219159-229.24737215 0.0097831-343.87594977zM564.84830387 662.83582913c-8.46238116 6.38836403-11.05490253 12.44410266-10.80054195 22.37394868 0.60655217 25.22083068 0.4304564 50.53949236 0.17609581 75.76032306-0.4304564 29.11450432-16.93454531 46.64581874-43.01628877 46.21536237-25.14256586-0.34240848-40.86400688-17.61936232-41.29446329-45.78490599-0.25436058-14.77248034-0.4304564-29.45691279 0-44.22939315 0.78264796-25.66107015-0.08804788-47.34041881-23.23486148-68.07080678-24.96647009-22.45221351-25.39692647-56.57566479-10.712494-87.9304989 15.20293672-32.31357788 41.97928024-47.34041881 70.82964083-49.4144359 41.20641537 0.4304564 74.1167623 24.79037428 85.43580853 58.65946501 11.22121519 33.7614766 1.03700857 70.90790567-27.38289568 92.4209416z m58.56163398-277.29217412c-36.53987687-0.69460006-73.07975378-0.26414367-109.61963064-0.2641437-37.23447697 0-74.54721873-0.77286487-111.78169565 0.34240849-14.51811976 0.44023946-17.36500173-4.57849059-16.84649744-17.70741023 1.03700857-22.4619966 0.08804788-45.002258 0.34240847-67.46425458 0.78264796-70.3209197 56.14520842-125.85957594 125.69326324-126.20198445 69.62631962-0.34240848 125.85957594 54.5896956 127.32704087 124.9106153 0.51850428 23.92946154-0.69460006 47.85892309 0.3424085 71.70033673 0.52828735 12.60063224-4.13825113 14.85074513-15.45729735 14.68443244z" p-id="938"></path></svg>