<?xml version="1.0" standalone="no"?><!DOCTYPE svg PUBLIC "-//W3C//DTD SVG 1.1//EN" "http://www.w3.org/Graphics/SVG/1.1/DTD/svg11.dtd"><svg t="1537161265620" class="icon" style="" viewBox="0 0 1137 1024" version="1.1" xmlns="http://www.w3.org/2000/svg" p-id="4549" xmlns:xlink="http://www.w3.org/1999/xlink" width="222.0703125" height="200"><defs><style type="text/css"></style></defs><path d="M501.020444 782.791111a23.438222 23.438222 0 0 1-10.524444-2.446222l-0.625778-0.284445-22.926222-22.926222L360.675556 516.380444l-68.494223 116.451556c-8.305778 16.497778-24.576 24.120889-32.995555 24.120889h-72.817778c-24.860444 0-40.675556-24.120889-40.675556-40.732445 0-24.348444 16.327111-40.732444 40.732445-40.732444h48.583111l100.124444-157.297778a20.081778 20.081778 0 0 1 17.635556-17.464889 51.370667 51.370667 0 0 1 22.129778-5.518222c7.736889 0 14.108444 2.332444 18.488889 6.712889l1.308444 1.251556v1.763555c0 1.820444 0.682667 2.56 2.389333 4.266667 1.934222 1.934222 4.551111 4.551111 4.835556 9.386666l89.713778 207.075556 149.447111-490.951111c0.398222-8.533333 7.68-16.042667 8.476444-16.896 0.910222-0.853333 8.419556-8.135111 16.896-8.533333a41.528889 41.528889 0 0 1 12.629334-1.991112c18.602667 0 35.612444 13.084444 36.124444 27.477334l130.048 440.718222h207.872c22.414222 0 40.618667 18.204444 40.618667 40.561778v0.341333c0 22.357333-18.204444 40.561778-40.618667 40.561778h-232.96c-24.803556 0-40.391111-16.896-40.675555-32.824889l-97.848889-335.189333-141.653334 467.285333-0.056889 0.341333c-6.314667 12.572444-22.983111 26.168889-38.968888 26.168889z m-423.822222 231.139556C29.525333 1013.930667 0 973.937778 0 936.789333V40.789333C0 16.270222 16.384 0 40.732444 0c24.405333 0 40.732444 16.327111 40.732445 40.732444v859.591112c0 19.569778 12.629333 32.142222 32.085333 32.142222h990.776889c16.156444 0 33.450667 15.587556 33.450667 40.732444 0 24.348444-16.384 40.732444-40.675556 40.732445H77.198222z" p-id="4550"></path></svg>