<?xml version="1.0" standalone="no"?><!DOCTYPE svg PUBLIC "-//W3C//DTD SVG 1.1//EN" "http://www.w3.org/Graphics/SVG/1.1/DTD/svg11.dtd"><svg t="1534816047144" class="icon" style="" viewBox="0 0 1024 1024" version="1.1" xmlns="http://www.w3.org/2000/svg" p-id="5621" xmlns:xlink="http://www.w3.org/1999/xlink" width="200" height="200"><defs><style type="text/css"></style></defs><path d="M800 752.672 799.808 752.672C799.424 778.92992 778.25792 800 752 800L272 800C245.888 800 224.864 777.58208 224.192 751.52 224.096 751.712 224 752.14208 224 752.14208L223.328 752 224.62592 752C227.60192 718.92992 253.42592 648.128 280.352 588.992 307.424 529.42208 353.64992 529.90208 389.74592 574.01984 415.424 605.36192 433.568 625.13792 452.62592 644.672 465.87008 658.49984 498.176 672.56192 517.76 641.64992 528.224 625.13792 592.39808 527.31008 606.752 500.24192 637.952 441.344 706.496 427.712 734.24 514.73792 764.62208 608.91008 799.232 720.94208 799.76192 752L800 752C800 752.14208 799.904 752.24192 799.904 752.384 799.904 752.43392 800 752.672 800 752.672M347.264 272C389.6576 272 424.064 306.357248 424.064 348.8 424.064 391.1936 389.6576 425.6 347.264 425.6 304.817152 425.6 270.464 391.1936 270.464 348.8 270.464 306.357248 304.8704 272 347.264 272M800 128 224 128C171.008 128 128 171.008 128 224L128 800C128 852.992 171.008 896 224 896L800 896C852.992 896 896 852.992 896 800L896 224C896 171.008 852.992 128 800 128" p-id="5622"></path></svg>