<?xml version="1.0" standalone="no"?><!DOCTYPE svg PUBLIC "-//W3C//DTD SVG 1.1//EN" "http://www.w3.org/Graphics/SVG/1.1/DTD/svg11.dtd"><svg t="1535941868125" class="icon" style="" viewBox="0 0 1024 1024" version="1.1" xmlns="http://www.w3.org/2000/svg" p-id="2572" xmlns:xlink="http://www.w3.org/1999/xlink" width="200" height="200"><defs><style type="text/css"></style></defs><path d="M949.334178 568.319595H562.369029c-22.002502 0-39.156995 18.873185-39.156995 42.659235v370.361935c0 23.850906 17.154493 42.659235 39.156995 42.659235h386.900293c21.937645 0 39.108352-18.808329 39.108352-42.659235V610.97883c0.064856-23.78605-18.662402-42.659235-38.962426-42.659235h-0.08107z m-364.65458 61.483778v332.729063h342.230512V629.803373H584.679598zM388.408202 938.68153c-133.16621-11.965988-235.023039-100.689415-239.725121-247.459236h73.611908L111.212351 525.660359 0 691.092582h73.611907c3.080675 189.558768 136.246885 312.396612 307.062181 329.486248 21.872789 1.637622 42.31874-17.089637 42.318739-41.021614 0.308067-20.348666-14.414314-37.811226-34.519769-40.940543l-0.064856 0.064857zM463.722587 0H76.692582C54.819793 0 37.519373 18.792115 37.519373 42.659235v368.643243c0 23.931977 17.235563 42.659235 39.173209 42.659235h386.900293c21.937645 0 39.173209-18.792115 39.173208-42.659235V42.724092c0-23.931977-17.235563-42.659235-39.173208-42.659236l0.129712-0.064856z m172.274563 83.729491c119.076178 11.965988 214.641944 83.615992 235.006824 206.453836h-68.909825l111.228565 165.561935 111.277207-165.497079h-76.757438C927.461389 124.751104 802.17522 17.089637 643.844763 1.783548c-21.872789-1.718692-42.237669 17.089637-42.237669 41.0054 1.443053 20.510807 15.516871 39.173209 34.390056 40.940543z" p-id="2573"></path></svg>