<?xml version="1.0" standalone="no"?><!DOCTYPE svg PUBLIC "-//W3C//DTD SVG 1.1//EN" "http://www.w3.org/Graphics/SVG/1.1/DTD/svg11.dtd"><svg t="1552290631334" class="icon" style="" viewBox="0 0 1024 1024" version="1.1" xmlns="http://www.w3.org/2000/svg" p-id="3112" xmlns:xlink="http://www.w3.org/1999/xlink" width="128" height="128"><defs><style type="text/css"></style></defs><path d="M904.052364 450.885818h-164.305455c-85.038545 0-133.678545 2.466909-133.678545 87.04v145.826909h145.826909l-243.013818 207.546182-243.060364-207.592727h145.826909v-145.780364c0-85.085091-48.593455-87.04-133.678545-87.04h-163.84C62.696727 450.885818 23.272727 490.263273 23.272727 541.789091v391.307636C23.272727 984.622545 62.650182 1024 114.176 1024h790.341818c51.572364 0 90.949818-39.377455 90.949818-90.903273V541.789091c-0.465455-51.525818-39.889455-90.903273-91.415272-90.903273zM178.827636 294.865455c-11.636364 0-20.945455-2.420364-26.763636-7.773091-8.238545-5.352727-13.591273-15.080727-16.011636-29.184H44.171636c8.285091 73.402182 51.991273 112.314182 130.280728 116.177454 88.948364-2.420364 134.144-42.263273 136.564363-120.087273 0-51.479273-37.422545-88.436364-112.733091-110.312727-36.957091-11.636364-55.435636-24.296727-55.435636-38.865454-0.930909-13.125818 9.728-19.921455 31.604364-21.410909 9.728 1.489455 17.501091 3.909818 23.831272 7.77309 7.261091 3.909818 12.101818 11.682909 14.056728 23.365819h90.437818C293.050182 41.146182 251.717818 3.723636 177.338182 2.234182 95.697455 6.144 54.365091 44.032 51.944727 116.456727c0 55.435636 36.957091 94.301091 110.824728 116.177455 37.934545 11.682909 56.878545 23.831273 56.878545 36.957091-0.465455 17.035636-14.568727 25.274182-40.820364 25.274182z m452.049455-111.802182C629.946182 70.795636 578.885818 14.429091 478.72 12.939636H350.394182v355.328h125.44c102.074182 0.465455 154.065455-61.719273 155.042909-185.204363z m-164.770909 102.586182h-20.945455V96.069818h18.990546c48.593455-3.909818 71.959273 27.229091 70.004363 92.811637 0 65.629091-22.853818 97.745455-68.049454 96.768z m299.426909-29.184l22.341818-29.184 70.004364 141.498181h115.712l-119.109818-222.673454L962.373818 12.474182h-112.733091l-84.107636 114.222545V12.474182h-96.721455v355.793454h96.721455V256.465455z" p-id="3113"></path></svg>